<svg id="Layer_1" data-name="Layer 1" xmlns="http://www.w3.org/2000/svg" viewBox="0 0 968 968"><defs><style>.cls-1{fill:#00a651;}.cls-2{fill:#fff;}.cls-3{fill:#231f20;}</style></defs><rect width="968" height="968"/><path class="cls-1" d="M1506.51,1341.82" transform="translate(-1022.51 -857.82)"/><polygon class="cls-2" points="879.52 712.35 879.52 255.65 484 27.29 88.48 255.65 88.48 712.35 484 940.71 879.52 712.35"/><polygon class="cls-3" points="855.04 698.22 855.04 269.78 484 55.56 112.96 269.78 112.96 698.22 484 912.44 855.04 698.22"/><polygon class="cls-2" points="830.31 683.94 830.31 284.06 484 84.11 137.69 284.06 137.69 683.94 484 883.89 830.31 683.94"/><path class="cls-3" d="M1334.7,1554V1370.63l-136.55-248.74h63.46l60.91,119.24c16.66,32.7,29.48,59,43,89.11h1.28c12.18-28.21,26.92-56.41,43.59-89.11l62.19-119.24H1536L1391.11,1370v184Z" transform="translate(-1022.51 -857.82)"/><path class="cls-3" d="M1815.49,1396.27C1815.49,1511,1736,1561,1661,1561c-84,0-148.73-61.54-148.73-159.62,0-103.86,68-164.76,153.85-164.76C1755.23,1236.64,1815.49,1301.39,1815.49,1396.27Zm-246.17,3.2c0,68,39.11,119.24,94.24,119.24,53.85,0,94.24-50.64,94.24-120.52,0-52.57-26.29-119.24-93-119.24S1569.32,1340.5,1569.32,1399.47Z" transform="translate(-1022.51 -857.82)"/></svg>