<svg id="Layer_1" data-name="Layer 1" xmlns="http://www.w3.org/2000/svg" viewBox="0 0 3003 1035.71"><defs><style>.cls-1{fill:#000101;stroke:#010100;}.cls-1,.cls-3{stroke-miterlimit:10;stroke-width:3px;}.cls-2{fill:#fff;}.cls-3{fill:#00a651;stroke:#231f20;}.cls-4{fill:#231f20;}</style></defs><rect class="cls-1" x="1.5" y="1.5" width="3000" height="1032.71"/><path class="cls-2" d="M1039.33,1676.73c32,19.54,78.69,35.83,127.87,35.83,73,0,115.57-38.27,115.57-93.64,0-51.3-29.5-80.61-104.09-109.11-90.17-31.76-145.9-78.17-145.9-155.53,0-85.5,71.31-149,178.68-149,56.56,0,97.54,13,122.13,26.87L1313.92,1290A221,221,0,0,0,1209,1263.9c-75.41,0-104.09,44.78-104.09,82.24,0,51.3,33.6,76.54,109.83,105.85,93.44,35.83,141,80.62,141,161.23,0,84.68-63.11,158-193.44,158-53.28,0-111.47-15.47-141-35Z" transform="translate(1.5 -982.14)"/><path d="M1162.28,1772.87c-51.35,0-111-14.84-141.92-35.29l-1.05-.7,19-62.74,1.88,1.15c36.45,22.28,83.91,35.58,127,35.58,70.24,0,113.87-35.24,113.87-91.95,0-49.7-27.92-78.85-103-107.54-100.27-35.31-147-85.24-147-157.1,0-42.32,17.64-80.62,49.68-107.85,33-28,78.17-42.85,130.71-42.85,65.12,0,105,17,123,27.09l1.22.69-20.77,61-1.77-1A218.6,218.6,0,0,0,1209,1265.59c-70.73,0-102.39,40.46-102.39,80.55,0,25.15,8,43.63,25.78,59.93,16.48,15.06,41.29,28.32,83,44.35,49.79,19.09,83.53,39.51,106.18,64.25,24.15,26.4,35.89,58.63,35.89,98.55,0,44.08-17.19,83.85-48.4,112C1274.42,1756.39,1223.68,1772.87,1162.28,1772.87Zm-139-37.42c30.67,19.77,88.8,34,139,34,141.53,0,191.74-84.18,191.74-156.27,0-75.3-40.53-121.55-139.89-159.65-42.1-16.19-67.23-29.65-84-45-18.34-16.76-26.88-36.59-26.88-62.41a78.47,78.47,0,0,1,24.29-56.38c18.83-18,47-27.55,81.5-27.55a222.25,222.25,0,0,1,104,25.31l18.58-54.59c-18.24-10-57.17-26-120.07-26-104.2,0-177,60.58-177,147.32,0,70.23,46,119.15,144.76,153.93,76.73,29.32,105.23,59.32,105.23,110.71,0,28.13-10.73,51.94-31,68.87-20.76,17.31-50.58,26.46-86.24,26.46-42.93,0-90.18-13-126.87-34.94Z" transform="translate(1.5 -982.14)"/><path class="cls-2" d="M1450.8,1184.92h72.13v245.9h1.64c11.47-20.35,29.51-38.27,51.64-50.48,21.31-12.22,46.72-20.36,73.77-20.36,53.28,0,138.52,32.57,138.52,168.55V1763h-72.13V1536.68c0-63.52-23.77-117.26-91.8-117.26-46.72,0-83.61,32.57-96.72,71.66-4.1,9.77-4.92,20.35-4.92,34.2V1763H1450.8Z" transform="translate(1.5 -982.14)"/><path d="M1790.2,1764.73h-75.53v-228c0-43.16-11.71-115.57-90.1-115.57-49.36,0-83.33,35.41-95.11,70.5l0,.12c-4,9.5-4.79,19.88-4.79,33.55v239.45H1449.1v-581.5h75.53v244.11c11.8-19.74,29.72-36.87,50.75-48.48,23.47-13.45,49.28-20.57,74.6-20.57,15.89,0,56.52,3.29,90.38,33.72,33.07,29.73,49.84,75.66,49.84,136.52Zm-72.13-3.38h68.73V1528.53c0-59.86-16.39-105-48.72-134-33-29.65-72.6-32.85-88.1-32.85-24.73,0-49.94,7-72.92,20.13-21.45,11.84-39.56,29.54-51,49.85l-.49.86h-4.33v-245.9H1452.5v574.74h68.73V1525.28c0-14.06.84-24.79,5-34.79a110.25,110.25,0,0,1,36.31-51.23,100,100,0,0,1,62-21.53c60.29,0,93.5,42.24,93.5,119Z" transform="translate(1.5 -982.14)"/><path class="cls-2" d="M2264.72,1562.73c0,145.76-101.64,209.27-197.54,209.27-107.38,0-190.17-78.17-190.17-202.75,0-131.91,86.89-209.27,196.72-209.27C2187.67,1360,2264.72,1442.22,2264.72,1562.73ZM1950,1566.8c0,86.32,50,151.46,120.5,151.46,68.85,0,120.49-64.33,120.49-153.08,0-66.77-33.61-151.46-118.86-151.46S1950,1491.89,1950,1566.8Z" transform="translate(1.5 -982.14)"/><path d="M2067.18,1773.69c-53.5,0-102-19.6-136.57-55.18-36.18-37.23-55.3-88.84-55.3-149.26,0-63.47,19.94-117.16,57.66-155.29,35.53-35.9,85.52-55.67,140.76-55.67,56.34,0,104.56,19.62,139.46,56.72s53.23,88.11,53.23,147.72c0,67.23-21.91,122.74-63.36,160.54C2167.4,1755.78,2119.14,1773.69,2067.18,1773.69Zm6.55-412c-116.64,0-195,83.42-195,207.58,0,118.38,77.49,201.06,188.46,201.06,97.48,0,195.83-64.19,195.83-207.58C2263,1442.47,2187,1361.67,2073.73,1361.67ZM2070.46,1720c-34.43,0-65.69-15.63-88-44-22-28-34.18-66.76-34.18-109.14,0-77,38.29-154.77,123.83-154.77,39,0,71.09,17.8,92.83,51.47,17.62,27.29,27.73,64.35,27.73,101.68,0,43.15-12.36,82.53-34.79,110.86S2104.4,1720,2070.46,1720Zm1.63-304.54c-83.19,0-120.42,76-120.42,151.39,0,86.78,49.95,149.77,118.79,149.77s118.79-63.67,118.79-151.39C2189.25,1493.05,2152.58,1415.41,2072.09,1415.41Z" transform="translate(1.5 -982.14)"/><path class="cls-2" d="M2395.86,1579c1.64,96.89,63.93,136.79,136.06,136.79,51.64,0,82.79-9,109.83-20.35l12.3,51.3c-25.41,11.39-68.85,24.42-132,24.42-122.13,0-195.08-79.79-195.08-198.68S2397.5,1360,2513.07,1360c129.5,0,163.93,113.18,163.93,185.65,0,14.66-1.64,26.06-2.46,33.39Zm211.47-51.3c.82-45.6-18.85-116.44-100-116.44-72.95,0-104.92,66.77-110.65,116.44Z" transform="translate(1.5 -982.14)"/><path d="M2522.08,1772.87c-59.76,0-109.76-19.11-144.56-55.28-34.16-35.49-52.22-85.66-52.22-145.09s17.79-113.38,50.09-151.92c34.15-40.75,81.75-62.29,137.68-62.29,30.74,0,58,6.4,81.07,19,20.26,11.1,37.38,27,50.88,47.38,30.4,45.8,33.68,99.83,33.68,120.93a244.74,244.74,0,0,1-2.07,30.19c-.15,1.21-.28,2.34-.4,3.38l-.17,1.51H2397.59c2.08,83.58,52.19,133.41,134.33,133.41,53.78,0,84.25-9.72,109.17-20.22l1.85-.78,13.09,54.6-1.28.57C2629.76,1759.51,2586.45,1772.87,2522.08,1772.87Zm-9-411.2c-108.55,0-184.37,86.7-184.37,210.83,0,121.51,74.1,197,193.38,197,62.68,0,105.11-12.75,130-23.71l-11.5-48c-24.92,10.34-55.59,19.71-108.65,19.71-38.68,0-71.74-11.23-95.6-32.49-27.2-24.23-41.38-59.88-42.16-106l0-1.72H2673c.08-.61.15-1.25.23-1.9a241.9,241.9,0,0,0,2.05-29.8C2675.3,1460.77,2632.81,1361.67,2513.07,1361.67ZM2609,1529.41H2394.77l.22-1.88c3.32-28.77,14.42-57.09,30.46-77.69,20.5-26.33,48.81-40.25,81.88-40.25,29,0,52.54,8.93,70,26.55,30.43,30.76,32,77.9,31.74,91.61ZM2398.6,1526h207.05c.07-15.18-2.41-58.83-30.78-87.52-16.76-17-39.48-25.54-67.54-25.54C2432.89,1413,2404.13,1483.13,2398.6,1526Z" transform="translate(1.5 -982.14)"/><path class="cls-2" d="M2756.5,1689.76c21.31,13.84,59,28.5,95.08,28.5,52.46,0,77.05-26.06,77.05-58.63,0-34.2-20.49-52.93-73.77-72.47-71.31-25.24-104.92-64.33-104.92-111.55,0-63.52,51.64-115.63,136.88-115.63,40.17,0,75.41,11.4,97.54,24.43l-18,52.11a155.13,155.13,0,0,0-81.15-22.8c-42.62,0-66.39,24.43-66.39,53.74,0,32.57,23.77,47.23,75.41,66.77,68.85,26.06,104.1,60.26,104.1,118.89,0,69.21-54.1,118.06-148.36,118.06-43.44,0-83.61-10.58-111.47-26.87Z" transform="translate(1.5 -982.14)"/><path d="M2849.94,1772.87c-41.91,0-82.86-9.88-112.34-27.1l-1.18-.69,19.15-57.94,1.86,1.2c21.63,14.05,59.13,28.23,94.15,28.23,46.48,0,75.35-21.82,75.35-56.94,0-32.66-19-51.21-72.66-70.88-69.36-24.56-106-63.68-106-113.14a109.52,109.52,0,0,1,37-82.89c25.31-22.52,60.43-34.43,101.55-34.43,35.38,0,72.17,9.22,98.4,24.67l1.19.7-19.18,55.43-1.82-1.14a152.28,152.28,0,0,0-80.23-22.54c-44.69,0-64.7,26.15-64.7,52,0,31.72,22.93,45.75,74.32,65.19,73.73,27.91,105.19,63.93,105.19,120.47,0,35.17-13.64,65-39.45,86.28C2934,1761.3,2895.75,1772.87,2849.94,1772.87Zm-109.43-29.33c28.88,16.51,68.67,26,109.43,26,89.09,0,146.66-45.68,146.66-116.37,0-54.9-30.81-90-103-117.31-51.84-19.61-76.51-34.84-76.51-68.35a51,51,0,0,1,17.8-39.13c12.29-10.66,29.69-16.3,50.3-16.3a156.16,156.16,0,0,1,80.23,21.94l16.88-48.8c-25.64-14.73-61.21-23.5-95.47-23.5-79.6,0-135.19,46.85-135.19,113.94,0,47.9,35.89,85.93,103.79,110,55.3,20.28,74.9,39.66,74.9,74.06,0,17.41-6.73,32.21-19.46,42.82-13.74,11.45-34.24,17.5-59.29,17.5-34.74,0-71.85-13.67-94.15-27.59Z" transform="translate(1.5 -982.14)"/><path class="cls-3" d="M1454.77,1500" transform="translate(1.5 -982.14)"/><polygon class="cls-2" points="900.09 775.06 900.09 260.65 451.64 3.45 3.2 260.65 3.2 775.06 451.64 1032.26 900.09 775.06"/><path d="M450.14,2016.36l-.85-.49L0,1758.18V1241.82L450.14,983.64l450.15,258.18v516.36l-.85.49ZM3.4,1756.23l446.74,256.22,446.75-256.22V1243.77L450.14,987.54,3.4,1243.77Z" transform="translate(1.5 -982.14)"/><polygon class="cls-4" points="872.33 759.14 872.33 276.57 451.64 35.29 30.96 276.57 30.96 759.14 451.64 1000.42 872.33 759.14"/><path class="cls-4" d="M450.14,1984.51l-.85-.49L27.76,1742.26V1257.74l.85-.48,421.53-241.77.85.48,421.54,241.77v484.52l-.85.48Zm-419-244.2,419,240.3,419-240.3V1259.69l-419-240.3-419,240.3Z" transform="translate(1.5 -982.14)"/><polygon class="cls-2" points="844.3 743.06 844.3 292.65 451.64 67.45 58.99 292.65 58.99 743.06 451.64 968.26 844.3 743.06"/><path class="cls-4" d="M450.14,1952.36l-.85-.49L55.79,1726.18V1273.82l.85-.49,393.5-225.69L844.5,1273.82v452.36l-.85.49ZM59.19,1724.23l391,224.23,391-224.23V1275.77l-391-224.23L59.19,1275.77Z" transform="translate(1.5 -982.14)"/><path class="cls-4" d="M255.34,1739V1532.45L100.53,1252.29h71.95l69.05,134.3c18.9,36.83,33.44,66.43,48.7,100.37h1.46c13.81-31.77,30.52-63.54,49.42-100.37l70.51-134.3h71.95L319.31,1531.73V1739Z" transform="translate(1.5 -982.14)"/><path class="cls-4" d="M321,1740.65H253.64V1532.88l-156-282.28h75.87l69.53,135.22c20.05,39.09,34,67.82,47.9,98.59,11.9-27.16,25.68-54,41.59-84.86l7.06-13.72,71-135.23h76L321,1532.18Zm-64-3.38h60.57v-206l.23-.4L480.61,1254h-68l-70,133.39q-3.57,7-7.05,13.71c-16.25,31.58-30.28,58.84-42.32,86.55l-.45,1h-3.67l-.45-1c-14.13-31.42-28.23-60.48-48.66-100.29L171.44,1254h-68L257,1532Z" transform="translate(1.5 -982.14)"/><path class="cls-4" d="M800.47,1561.33c0,129.25-90.12,185.57-175.17,185.57-95.21,0-168.62-69.32-168.62-179.79,0-117,77-185.57,174.44-185.57C732.15,1381.54,800.47,1454.47,800.47,1561.33Zm-279.1,3.61c0,76.54,44.33,134.3,106.84,134.3,61.06,0,106.85-57,106.85-135.74,0-59.21-29.8-134.31-105.39-134.31S521.37,1498.51,521.37,1564.94Z" transform="translate(1.5 -982.14)"/><path class="cls-4" d="M625.3,1748.59c-47.49,0-90.55-17.4-121.24-49-32.11-33-49.08-78.86-49.08-132.49,0-56.33,17.69-104,51.18-137.84,31.54-31.87,75.92-49.42,125-49.42,50,0,92.82,17.41,123.81,50.36s47.25,78.21,47.25,131.12c0,59.67-19.45,109-56.25,142.5C714.27,1732.69,671.43,1748.59,625.3,1748.59Zm5.82-365.36c-103.32,0-172.74,73.89-172.74,183.88,0,104.86,68.64,178.1,166.92,178.1,86.35,0,173.47-56.86,173.47-183.88C798.77,1454.8,731.4,1383.23,631.12,1383.23Zm-2.91,317.7c-30.58,0-58.36-13.88-78.2-39.1-19.57-24.85-30.35-59.26-30.35-96.89,0-68.41,34-137.44,110-137.44,34.64,0,63.16,15.82,82.47,45.73,15.65,24.23,24.62,57.13,24.62,90.27,0,38.31-11,73.27-30.89,98.43S658.37,1700.93,628.21,1700.93Zm1.46-270c-73.64,0-106.6,67.33-106.6,134.06,0,76.84,44.22,132.61,105.14,132.61s105.15-56.38,105.15-134C733.36,1499.63,700.91,1430.88,629.67,1430.88Z" transform="translate(1.5 -982.14)"/></svg>